<svg width="133" height="46" viewBox="0 0 133 46" fill="none" xmlns="http://www.w3.org/2000/svg">
<g clip-path="url(#clip0_938_533)">
<path d="M6.20427 0.471924C4.72522 0.471924 3.30675 1.05861 2.2609 2.10292C1.21505 3.14724 0.627502 4.56363 0.627502 6.04051V39.9596C0.627502 41.4365 1.21505 42.8529 2.2609 43.8972C3.30675 44.9415 4.72522 45.5282 6.20427 45.5282H42.2119V0.471924H6.20427Z" fill="white"/>
<path d="M42.6844 45.9932H6.20429C4.60164 45.9914 3.06505 45.3553 1.93117 44.2244C0.797292 43.0935 0.158579 41.5598 0.154968 39.9596L0.154968 6.04044C0.156774 4.43897 0.794691 2.90361 1.92877 1.7712C3.06284 0.638784 4.60046 0.00180346 6.20429 0L42.6844 0V45.9932ZM6.20429 0.943712C4.85167 0.947309 3.55548 1.48544 2.59904 2.44048C1.64259 3.39552 1.10367 4.68981 1.10007 6.04044V39.9596C1.10367 41.3102 1.64259 42.6045 2.59904 43.5595C3.55548 44.5146 4.85167 45.0527 6.20429 45.0563H41.7393V0.943712H6.20429Z" fill="#015A75"/>
<path d="M122.184 39.9596V6.04051C122.184 5.30923 122.039 4.58511 121.759 3.9095C121.479 3.23389 121.068 2.62001 120.55 2.10292C120.032 1.58583 119.418 1.17565 118.741 0.895807C118.064 0.615959 117.339 0.471924 116.607 0.471924H42.2119V45.5282H116.607C118.086 45.5282 119.504 44.9415 120.55 43.8972C121.596 42.8529 122.184 41.4365 122.184 39.9596Z" fill="#015A75"/>
<path d="M116.607 45.9932H41.7394V0H116.607C118.211 0.00180346 119.748 0.638784 120.882 1.7712C122.017 2.90361 122.654 4.43897 122.656 6.04044V39.9596C122.653 41.5598 122.014 43.0935 120.88 44.2244C119.746 45.3553 118.21 45.9914 116.607 45.9932ZM42.6845 45.0563H116.607C117.96 45.0527 119.256 44.5146 120.212 43.5595C121.169 42.6045 121.708 41.3102 121.711 39.9596V6.04044C121.708 4.68981 121.169 3.39552 120.212 2.44048C119.256 1.48544 117.96 0.947309 116.607 0.943712H42.6845V45.0563ZM131.079 39.8454L129.253 42.2456V42.2831L132.153 41.8998V43.2046L129.253 42.8639V42.9031L131.099 45.2062L129.888 45.8978L128.735 43.2097H128.695L127.445 45.9165L126.35 45.2249L128.175 42.8827V42.8452L125.329 43.2097V41.9049L128.155 42.2694V42.2303L126.348 39.888L127.52 39.2169L128.714 41.8845H128.753L129.925 39.1981L131.079 39.8454Z" fill="#015A75"/>
<path fill-rule="evenodd" clip-rule="evenodd" d="M18.3985 15.205L16.452 17.8862C15.4762 19.2268 15.7781 21.6049 17.1105 22.5656L20.7186 25.1668C21.3378 25.6131 21.3873 26.056 21.0922 26.5295L21.6159 26.9179L23.443 24.3917C24.5723 22.8313 24.4666 20.7054 22.7999 19.4892L19.1628 16.8352C18.7277 16.5183 18.6817 16.0754 18.9239 15.5797L18.4002 15.2067M21.5204 3.37451L18.4906 7.55989C17.0695 9.52227 17.5865 12.873 19.5278 14.2953L24.5092 17.9458C25.5191 18.6851 25.6505 20.5709 24.9152 21.5367L25.3383 21.8536L28.7741 17.026C30.3095 14.8592 30.2276 11.6567 27.8051 9.90043L22.4757 6.0353C21.7302 5.49361 21.3583 4.57545 21.9793 3.69817L21.5204 3.37451ZM13.5365 29.6128H17.5557L18.2705 32.0436H24.8316L25.5464 29.6128H29.5623L29.0351 27.8242H14.0619L13.5348 29.6128M15.4182 37.7434C16.1244 37.3311 16.5578 36.7213 16.5578 35.8951C16.5578 34.2342 15.193 33.558 13.7088 33.558H9.55652V42.3733H13.6696C15.4267 42.3733 17.2879 41.6068 16.9877 39.5882C16.8171 38.4332 16.3496 38.1556 15.4165 37.7451M11.4348 35.2427H13.5911C14.9388 35.2427 14.9866 37.1165 13.6764 37.1165H11.4348V35.2427ZM13.8402 40.7125H11.4348V38.6956H13.8402C15.6092 38.6956 15.5086 40.7125 13.8402 40.7125ZM23.6597 37.7434C24.3659 37.3311 24.7992 36.7213 24.7992 35.8951C24.7992 34.2342 23.4345 33.558 21.9503 33.558H17.7997V42.3733H21.9128C23.6682 42.3733 25.5311 41.6068 25.2308 39.5882C25.0602 38.4332 24.5928 38.1556 23.6614 37.7451M19.678 35.2444H21.8343C23.182 35.2444 23.2315 37.1182 21.9196 37.1182H19.6762L19.678 35.2444ZM22.0816 40.7125H19.6762V38.6956H22.0816C23.8507 38.6956 23.7432 40.7125 22.0816 40.7125ZM33.4723 39.5865C33.3017 38.4315 32.8343 38.1539 31.9011 37.7434C32.6074 37.3311 33.0407 36.7213 33.0407 35.8951C33.0407 34.2342 31.6759 33.558 30.1918 33.558H26.0412V42.3733H30.1542C31.9097 42.3733 33.7726 41.6068 33.4723 39.5882M27.9194 35.2444H30.0758C31.4235 35.2444 31.4729 37.1182 30.161 37.1182H27.9194V35.2444ZM30.3248 40.7125H27.9194V38.6956H30.3248C32.0939 38.6956 31.9864 40.7125 30.3248 40.7125Z" fill="#015A75"/>
<path d="M53.5155 21.1364L53.1112 20.0257H50.2964L49.8835 21.1364H48.2885L50.8218 14.5815H52.5738L55.1037 21.1364H53.5155ZM51.7055 15.9766L50.6819 18.7975H52.7291L51.7055 15.9766ZM54.9724 17.8624C54.9724 15.8472 56.4975 14.4725 58.4662 14.4725C59.0282 14.456 59.5835 14.5973 60.0691 14.8804C60.5546 15.1635 60.9509 15.5769 61.2128 16.0737L60.0186 16.6631C59.8706 16.3801 59.6489 16.1422 59.3769 15.9743C59.105 15.8064 58.7927 15.7149 58.473 15.7092C57.2788 15.7092 56.4156 16.6239 56.4156 17.8606C56.4156 19.0974 57.2823 20.0121 58.473 20.0121C58.7932 20.0085 59.1062 19.9177 59.3786 19.7496C59.6509 19.5815 59.8722 19.3425 60.0186 19.0582L61.2128 19.6374C60.7402 20.4533 59.9128 21.2488 58.4662 21.2488C56.4975 21.2539 54.9724 19.8775 54.9724 17.8624ZM61.5471 17.8624C61.5471 15.8472 63.0723 14.4725 65.0409 14.4725C65.6029 14.456 66.1583 14.5973 66.6438 14.8804C67.1294 15.1635 67.5256 15.5769 67.7875 16.0737L66.5934 16.6631C66.4453 16.3801 66.2237 16.1422 65.9517 15.9743C65.6797 15.8064 65.3675 15.7149 65.0478 15.7092C63.8536 15.7092 62.9904 16.6239 62.9904 17.8606C62.9904 19.0974 63.857 20.0121 65.0478 20.0121C65.3679 20.0085 65.681 19.9177 65.9533 19.7496C66.2257 19.5815 66.4469 19.3425 66.5934 19.0582L67.7875 19.6374C67.315 20.4533 66.4876 21.2488 65.0409 21.2488C63.074 21.2539 61.5471 19.8775 61.5471 17.8624ZM72.3356 21.1364L71.0459 18.8078H70.0223V21.1364H68.6251V14.5815H71.6959C73.0606 14.5815 73.9 15.4758 73.9 16.6938C73.9 17.8538 73.1715 18.4722 72.4635 18.6391L73.9392 21.1347L72.3356 21.1364ZM72.4721 16.6938C72.4721 16.1436 72.049 15.8097 71.4877 15.8097H70.0206V17.5779H71.4877C72.049 17.5779 72.4721 17.244 72.4721 16.6938ZM74.9525 21.1364V14.5815H79.5979V15.8097H76.3565V17.1946H79.5347V18.4228H76.3514V19.9065H79.5927V21.1347L74.9525 21.1364ZM80.6914 21.1364V14.5815H83.2793C85.3367 14.5815 86.7629 15.8881 86.7629 17.8641C86.7629 19.8401 85.335 21.1364 83.2793 21.1364H80.6914ZM85.3367 17.8641C85.3367 16.704 84.6287 15.8097 83.2793 15.8097H82.0851V19.9082H83.2793C84.5792 19.9065 85.3367 18.973 85.3367 17.8624V17.8641ZM87.7574 21.1364V14.5815H89.1546V21.1364H87.7574ZM91.9712 21.1364V15.8097H90.0588V14.5815H95.2943V15.8097H93.3786V21.1364H91.9712ZM96.1832 21.1364V14.5815H100.828V15.8097H97.5872V17.1946H100.765V18.4228H97.5803V19.9065H100.822V21.1347L96.1832 21.1364ZM101.922 21.1364V14.5815H104.51C106.567 14.5815 107.993 15.8881 107.993 17.8641C107.993 19.8401 106.566 21.1364 104.51 21.1364H101.922ZM106.567 17.8641C106.567 16.704 105.859 15.8097 104.51 15.8097H103.316V19.9082H104.51C105.808 19.9065 106.567 18.973 106.567 17.8624V17.8641ZM48.9879 32.3945V25.8379H52.4425C53.6929 25.8379 54.3327 26.6334 54.3327 27.509C54.3327 28.3352 53.8209 28.8854 53.2016 29.0131C53.901 29.1205 54.4606 29.8001 54.4606 30.6246C54.4606 31.6075 53.8004 32.3928 52.5516 32.3928L48.9879 32.3945ZM52.9116 27.756C52.9136 27.657 52.8948 27.5587 52.8563 27.4674C52.8177 27.3762 52.7604 27.2941 52.688 27.2264C52.6156 27.1587 52.5297 27.1071 52.436 27.0748C52.3422 27.0425 52.2427 27.0302 52.1439 27.0388H50.3868V28.4646H52.1388C52.6113 28.4629 52.9065 28.1682 52.9065 27.7543L52.9116 27.756ZM53.0395 30.4287C53.0395 30.0165 52.7444 29.6622 52.1866 29.6622H50.3868V31.1851H52.1866C52.7188 31.1851 53.0395 30.9006 53.0395 30.4287ZM55.5149 29.7797V25.8379H56.9325V29.7303C56.9325 30.6451 57.4648 31.2736 58.4781 31.2736C59.4915 31.2736 60.0135 30.6451 60.0135 29.7303V25.8379H61.4414V29.7695C61.4414 31.4014 60.4775 32.512 58.4781 32.512C56.4787 32.512 55.5149 31.3912 55.5149 29.7797ZM62.2858 31.4695L63.0433 30.4083C63.313 30.689 63.637 30.9121 63.9956 31.064C64.3543 31.216 64.7401 31.2937 65.1296 31.2924C65.8973 31.2924 66.2709 30.938 66.2709 30.565C66.2709 30.0829 65.6602 29.9466 64.942 29.7695C63.8689 29.5242 62.4905 29.2295 62.4905 27.7356C62.4905 26.6454 63.4356 25.7408 64.9812 25.7408C66.0253 25.7408 66.8902 26.056 67.5402 26.6556L66.7622 27.6776C66.2378 27.2091 65.5569 26.9533 64.8533 26.9605C64.2528 26.9605 63.9184 27.2262 63.9184 27.6197C63.9184 28.0422 64.5189 28.1802 65.2269 28.3471C66.3102 28.6026 67.6869 28.9263 67.6869 30.4117C67.6869 31.6041 66.8339 32.5154 65.0597 32.5154C63.8007 32.512 62.8966 32.0896 62.2858 31.4695ZM68.6337 32.3945V25.8379H70.0309V32.3928L68.6337 32.3945ZM75.8584 32.3945L72.728 28.1188V32.3945H71.3308V25.8379H72.7672L75.8089 29.9552V25.8379H77.2061V32.3928L75.8584 32.3945ZM78.506 32.3945V25.8379H83.1514V27.0661H79.91V28.4476H83.0882V29.6758H79.9032V31.1731H83.1445V32.4013L78.506 32.3945ZM83.8013 31.4695L84.5588 30.4083C84.8287 30.6892 85.153 30.9124 85.5119 31.0644C85.8709 31.2164 86.257 31.2939 86.6469 31.2924C87.4145 31.2924 87.7881 30.938 87.7881 30.565C87.7881 30.0829 87.1774 29.9466 86.4592 29.7695C85.3862 29.5242 84.0077 29.2295 84.0077 27.7356C84.0077 26.6454 84.9528 25.7408 86.4984 25.7408C87.5425 25.7408 88.4074 26.056 89.0574 26.6556L88.2795 27.6776C87.755 27.2091 87.0741 26.9533 86.3705 26.9605C85.77 26.9605 85.4356 27.2262 85.4356 27.6197C85.4356 28.0422 86.0361 28.1802 86.7441 28.3471C87.8274 28.6026 89.2041 28.9263 89.2041 30.4117C89.2041 31.6041 88.3511 32.5154 86.5769 32.5154C85.3162 32.512 84.4121 32.0896 83.8013 31.4695ZM89.6084 31.4695L90.3658 30.4083C90.635 30.6884 90.9581 30.9111 91.3159 31.063C91.6736 31.215 92.0584 31.293 92.4471 31.2924C93.2148 31.2924 93.5884 30.938 93.5884 30.565C93.5884 30.0829 92.9777 29.9466 92.2595 29.7695C91.1864 29.5242 89.808 29.2295 89.808 27.7356C89.808 26.6454 90.7531 25.7408 92.2987 25.7408C93.3427 25.7408 94.2077 26.056 94.8576 26.6556L94.0797 27.6776C93.5553 27.2091 92.8744 26.9533 92.1707 26.9605C91.5702 26.9605 91.2359 27.2262 91.2359 27.6197C91.2359 28.0422 91.8364 28.1802 92.5443 28.3471C93.6413 28.6009 95.006 28.9246 95.006 30.4083C95.006 31.6007 94.1531 32.512 92.3789 32.512C91.1233 32.512 90.2191 32.0896 89.6084 31.4695Z" fill="white"/>
</g>
<defs>
<clipPath id="clip0_938_533">
<rect width="132" height="46" fill="white" transform="translate(0.154968)"/>
</clipPath>
</defs>
</svg>
