<svg width="170" height="46" viewBox="0 0 170 46" fill="none" xmlns="http://www.w3.org/2000/svg">
<rect width="170" height="46" fill="#F6F6F6"/>
<path d="M34.7773 16.1294V23.2756C33.9173 22.9912 33.0021 22.9148 32.1068 23.0526C31.2115 23.1905 30.3617 23.5386 29.6271 24.0686C28.8924 24.5985 28.2939 25.2951 27.8807 26.1012C27.4674 26.9072 27.2512 27.7998 27.2498 28.7056V31.4112C27.1914 31.5758 27.1616 31.7491 27.1617 31.9237V36.78C27.1617 37.1861 27.3229 37.5756 27.6099 37.863C27.8969 38.1503 28.2862 38.312 28.6923 38.3125H11.3467C10.1729 38.3125 9.22168 37.1719 9.22168 35.7663V9.8125C9.22168 9.24891 9.44556 8.70841 9.84408 8.3099C10.2426 7.91138 10.7831 7.6875 11.3467 7.6875H26.2548V14.6038C26.2548 15.0085 26.4156 15.3967 26.7018 15.683C26.9881 15.9692 27.3763 16.13 27.7811 16.13H34.7773V16.1294Z" fill="#F1F2F2"/>
<path d="M34.7773 25.4875V30.3906H29.2773V28.7031C29.2776 28.0589 29.4465 27.4259 29.7671 26.8671C30.0878 26.3083 30.549 25.8431 31.1051 25.5178C31.6611 25.1924 32.2926 25.0182 32.9368 25.0125C33.5811 25.0067 34.2156 25.1696 34.7773 25.485V25.4875Z" fill="#F1F2F2"/>
<path d="M26.2549 7.6875V14.6044C26.2549 14.8048 26.2944 15.0032 26.3711 15.1884C26.4478 15.3735 26.5602 15.5417 26.702 15.6834C26.8437 15.8251 27.0119 15.9374 27.1971 16.014C27.3823 16.0907 27.5807 16.1301 27.7811 16.13H34.7774L26.2549 7.6875Z" fill="#D0DCE5"/>
<path d="M38.6875 28.7056V31.5256C38.5751 31.1947 38.3619 30.9074 38.0779 30.7038C37.7938 30.5002 37.4532 30.3907 37.1038 30.3906H36.6562V28.7031C36.6562 27.7245 36.2675 26.7859 35.5755 26.0939C34.8835 25.4019 33.9449 25.0131 32.9662 25.0131C31.9876 25.0131 31.049 25.4019 30.357 26.0939C29.665 26.7859 29.2763 27.7245 29.2763 28.7031V30.3906H28.8294C28.4806 30.3917 28.1409 30.5017 27.8577 30.7053C27.5745 30.9089 27.362 31.196 27.25 31.5263V28.7056C27.25 27.9543 27.398 27.2103 27.6855 26.5162C27.973 25.8221 28.3944 25.1914 28.9257 24.6601C29.457 24.1288 30.0877 23.7074 30.7818 23.4199C31.476 23.1324 32.2199 22.9844 32.9713 22.9844C33.7226 22.9844 34.4665 23.1324 35.1607 23.4199C35.8548 23.7074 36.4855 24.1288 37.0168 24.6601C37.5481 25.1914 37.9695 25.8221 38.257 26.5162C38.5445 27.2103 38.6925 27.9543 38.6925 28.7056H38.6875Z" fill="#D0DCE5"/>
<path d="M37.2453 30.3906H28.6922C27.8458 30.3906 27.1597 31.0767 27.1597 31.9231V36.7794C27.1597 37.6258 27.8458 38.3119 28.6922 38.3119H37.2453C38.0917 38.3119 38.7778 37.6258 38.7778 36.7794V31.9231C38.7778 31.0767 38.0917 30.3906 37.2453 30.3906Z" fill="#F6D367"/>
<path d="M32.9517 35.7337C33.7149 35.7337 34.3336 35.115 34.3336 34.3518C34.3336 33.5887 33.7149 32.97 32.9517 32.97C32.1885 32.97 31.5698 33.5887 31.5698 34.3518C31.5698 35.115 32.1885 35.7337 32.9517 35.7337Z" fill="#4A5159"/>
<path d="M25.9442 38.3125H11.3467C10.1729 38.3125 9.22168 37.1719 9.22168 35.7663V20.6031C10.6866 24.5214 12.9208 28.1068 15.7927 31.1483C18.6647 34.1897 22.1163 36.6256 25.9442 38.3125Z" fill="#E4E4E8"/>
<path d="M16.6753 19.6969H14.3315C14.2321 19.6969 14.1367 19.6574 14.0664 19.5871C13.9961 19.5167 13.9565 19.4214 13.9565 19.3219C13.9565 19.2224 13.9961 19.1271 14.0664 19.0567C14.1367 18.9864 14.2321 18.9469 14.3315 18.9469H16.6753C16.7747 18.9469 16.8701 18.9864 16.9405 19.0567C17.0108 19.1271 17.0503 19.2224 17.0503 19.3219C17.0503 19.4214 17.0108 19.5167 16.9405 19.5871C16.8701 19.6574 16.7747 19.6969 16.6753 19.6969Z" fill="#4A5159"/>
<path d="M24.8018 19.6969H19.3018C19.2023 19.6969 19.1069 19.6574 19.0366 19.5871C18.9663 19.5167 18.9268 19.4214 18.9268 19.3219C18.9268 19.2224 18.9663 19.1271 19.0366 19.0567C19.1069 18.9864 19.2023 18.9469 19.3018 18.9469H24.8018C24.9012 18.9469 24.9966 18.9864 25.0669 19.0567C25.1372 19.1271 25.1768 19.2224 25.1768 19.3219C25.1768 19.4214 25.1372 19.5167 25.0669 19.5871C24.9966 19.6574 24.9012 19.6969 24.8018 19.6969Z" fill="#4A5159"/>
<path d="M29.668 19.6969H27.2349C27.1354 19.6969 27.04 19.6574 26.9697 19.5871C26.8994 19.5167 26.8599 19.4214 26.8599 19.3219C26.8599 19.2224 26.8994 19.1271 26.9697 19.0567C27.04 18.9864 27.1354 18.9469 27.2349 18.9469H29.668C29.7674 18.9469 29.8628 18.9864 29.9332 19.0567C30.0035 19.1271 30.043 19.2224 30.043 19.3219C30.043 19.4214 30.0035 19.5167 29.9332 19.5871C29.8628 19.6574 29.7674 19.6969 29.668 19.6969Z" fill="#4A5159"/>
<path d="M16.4147 23.375H14.3315C14.2321 23.375 14.1367 23.3355 14.0664 23.2652C13.9961 23.1948 13.9565 23.0995 13.9565 23C13.9565 22.9005 13.9961 22.8052 14.0664 22.7348C14.1367 22.6645 14.2321 22.625 14.3315 22.625H16.4147C16.5141 22.625 16.6095 22.6645 16.6798 22.7348C16.7502 22.8052 16.7897 22.9005 16.7897 23C16.7897 23.0995 16.7502 23.1948 16.6798 23.2652C16.6095 23.3355 16.5141 23.375 16.4147 23.375Z" fill="#4A5159"/>
<path d="M21.9901 23.375H18.7495C18.6501 23.375 18.5547 23.3355 18.4843 23.2652C18.414 23.1948 18.3745 23.0995 18.3745 23C18.3745 22.9005 18.414 22.8052 18.4843 22.7348C18.5547 22.6645 18.6501 22.625 18.7495 22.625H21.9926C22.0921 22.625 22.1875 22.6645 22.2578 22.7348C22.3281 22.8052 22.3676 22.9005 22.3676 23C22.3676 23.0995 22.3281 23.1948 22.2578 23.2652C22.1875 23.3355 22.0921 23.375 21.9926 23.375H21.9901Z" fill="#4A5159"/>
<path d="M27.9607 23.375H24.9282C24.8288 23.375 24.7334 23.3355 24.6631 23.2652C24.5927 23.1948 24.5532 23.0995 24.5532 23C24.5532 22.9005 24.5927 22.8052 24.6631 22.7348C24.7334 22.6645 24.8288 22.625 24.9282 22.625H27.9607C28.0602 22.625 28.1556 22.6645 28.2259 22.7348C28.2962 22.8052 28.3357 22.9005 28.3357 23C28.3357 23.0995 28.2962 23.1948 28.2259 23.2652C28.1556 23.3355 28.0602 23.375 27.9607 23.375Z" fill="#4A5159"/>
<path d="M19.9265 27.0531H14.3315C14.2321 27.0531 14.1367 27.0136 14.0664 26.9433C13.9961 26.8729 13.9565 26.7776 13.9565 26.6781C13.9565 26.5786 13.9961 26.4833 14.0664 26.4129C14.1367 26.3426 14.2321 26.3031 14.3315 26.3031H19.9265C20.026 26.3031 20.1214 26.3426 20.1917 26.4129C20.262 26.4833 20.3015 26.5786 20.3015 26.6781C20.3015 26.7776 20.262 26.8729 20.1917 26.9433C20.1214 27.0136 20.026 27.0531 19.9265 27.0531Z" fill="#4A5159"/>
<path d="M25.5207 27.0531H21.9707C21.8712 27.0531 21.7759 27.0136 21.7055 26.9433C21.6352 26.8729 21.5957 26.7776 21.5957 26.6781C21.5957 26.5786 21.6352 26.4833 21.7055 26.4129C21.7759 26.3426 21.8712 26.3031 21.9707 26.3031H25.5207C25.6202 26.3031 25.7155 26.3426 25.7859 26.4129C25.8562 26.4833 25.8957 26.5786 25.8957 26.6781C25.8957 26.7776 25.8562 26.8729 25.7859 26.9433C25.7155 27.0136 25.6202 27.0531 25.5207 27.0531Z" fill="#4A5159"/>
<path d="M45.324 13.148V11.24H48.648V20H46.512V13.148H45.324ZM50.0517 15.5C50.0517 14.124 50.3157 13.04 50.8437 12.248C51.3797 11.456 52.2397 11.06 53.4237 11.06C54.6077 11.06 55.4637 11.456 55.9917 12.248C56.5277 13.04 56.7957 14.124 56.7957 15.5C56.7957 16.892 56.5277 17.984 55.9917 18.776C55.4637 19.568 54.6077 19.964 53.4237 19.964C52.2397 19.964 51.3797 19.568 50.8437 18.776C50.3157 17.984 50.0517 16.892 50.0517 15.5ZM54.7797 15.5C54.7797 14.692 54.6917 14.072 54.5157 13.64C54.3397 13.2 53.9757 12.98 53.4237 12.98C52.8717 12.98 52.5077 13.2 52.3317 13.64C52.1557 14.072 52.0677 14.692 52.0677 15.5C52.0677 16.044 52.0997 16.496 52.1637 16.856C52.2277 17.208 52.3557 17.496 52.5477 17.72C52.7477 17.936 53.0397 18.044 53.4237 18.044C53.8077 18.044 54.0957 17.936 54.2877 17.72C54.4877 17.496 54.6197 17.208 54.6837 16.856C54.7477 16.496 54.7797 16.044 54.7797 15.5ZM57.8798 15.5C57.8798 14.124 58.1438 13.04 58.6718 12.248C59.2078 11.456 60.0678 11.06 61.2518 11.06C62.4358 11.06 63.2918 11.456 63.8198 12.248C64.3558 13.04 64.6238 14.124 64.6238 15.5C64.6238 16.892 64.3558 17.984 63.8198 18.776C63.2918 19.568 62.4358 19.964 61.2518 19.964C60.0678 19.964 59.2078 19.568 58.6718 18.776C58.1438 17.984 57.8798 16.892 57.8798 15.5ZM62.6078 15.5C62.6078 14.692 62.5198 14.072 62.3438 13.64C62.1678 13.2 61.8038 12.98 61.2518 12.98C60.6998 12.98 60.3358 13.2 60.1598 13.64C59.9838 14.072 59.8958 14.692 59.8958 15.5C59.8958 16.044 59.9278 16.496 59.9918 16.856C60.0558 17.208 60.1838 17.496 60.3758 17.72C60.5758 17.936 60.8678 18.044 61.2518 18.044C61.6358 18.044 61.9238 17.936 62.1158 17.72C62.3158 17.496 62.4478 17.208 62.5118 16.856C62.5758 16.496 62.6078 16.044 62.6078 15.5ZM65.54 13.448C65.54 12.8 65.724 12.3 66.092 11.948C66.468 11.596 66.952 11.42 67.544 11.42C68.136 11.42 68.616 11.596 68.984 11.948C69.352 12.3 69.536 12.8 69.536 13.448C69.536 14.096 69.352 14.596 68.984 14.948C68.616 15.3 68.136 15.476 67.544 15.476C66.952 15.476 66.468 15.3 66.092 14.948C65.724 14.596 65.54 14.096 65.54 13.448ZM73.688 11.552L69.068 20H67.088L71.708 11.552H73.688ZM67.532 12.62C67.148 12.62 66.956 12.896 66.956 13.448C66.956 13.992 67.148 14.264 67.532 14.264C67.716 14.264 67.86 14.196 67.964 14.06C68.068 13.924 68.12 13.72 68.12 13.448C68.12 12.896 67.924 12.62 67.532 12.62ZM71.252 18.104C71.252 17.456 71.436 16.956 71.804 16.604C72.172 16.252 72.652 16.076 73.244 16.076C73.836 16.076 74.316 16.252 74.684 16.604C75.052 16.956 75.236 17.456 75.236 18.104C75.236 18.752 75.052 19.252 74.684 19.604C74.316 19.956 73.836 20.132 73.244 20.132C72.652 20.132 72.172 19.956 71.804 19.604C71.436 19.252 71.252 18.752 71.252 18.104ZM73.232 17.276C73.048 17.276 72.904 17.344 72.8 17.48C72.704 17.616 72.656 17.824 72.656 18.104C72.656 18.648 72.848 18.92 73.232 18.92C73.416 18.92 73.56 18.852 73.664 18.716C73.768 18.58 73.82 18.376 73.82 18.104C73.82 17.832 73.768 17.628 73.664 17.492C73.56 17.348 73.416 17.276 73.232 17.276ZM78.5483 15.776C78.5483 14.944 78.7283 14.204 79.0883 13.556C79.4483 12.9 79.9483 12.392 80.5883 12.032C81.2363 11.664 81.9683 11.48 82.7843 11.48C83.7843 11.48 84.6403 11.744 85.3523 12.272C86.0643 12.8 86.5403 13.52 86.7803 14.432H84.5243C84.3563 14.08 84.1163 13.812 83.8043 13.628C83.5003 13.444 83.1523 13.352 82.7603 13.352C82.1283 13.352 81.6163 13.572 81.2243 14.012C80.8323 14.452 80.6363 15.04 80.6363 15.776C80.6363 16.512 80.8323 17.1 81.2243 17.54C81.6163 17.98 82.1283 18.2 82.7603 18.2C83.1523 18.2 83.5003 18.108 83.8043 17.924C84.1163 17.74 84.3563 17.472 84.5243 17.12H86.7803C86.5403 18.032 86.0643 18.752 85.3523 19.28C84.6403 19.8 83.7843 20.06 82.7843 20.06C81.9683 20.06 81.2363 19.88 80.5883 19.52C79.9483 19.152 79.4483 18.644 79.0883 17.996C78.7283 17.348 78.5483 16.608 78.5483 15.776ZM91.085 20.096C90.429 20.096 89.837 19.956 89.309 19.676C88.789 19.396 88.377 18.996 88.073 18.476C87.777 17.956 87.629 17.348 87.629 16.652C87.629 15.964 87.781 15.36 88.085 14.84C88.389 14.312 88.805 13.908 89.333 13.628C89.861 13.348 90.453 13.208 91.109 13.208C91.765 13.208 92.357 13.348 92.885 13.628C93.413 13.908 93.829 14.312 94.133 14.84C94.437 15.36 94.589 15.964 94.589 16.652C94.589 17.34 94.433 17.948 94.121 18.476C93.817 18.996 93.397 19.396 92.861 19.676C92.333 19.956 91.741 20.096 91.085 20.096ZM91.085 18.32C91.477 18.32 91.809 18.176 92.081 17.888C92.361 17.6 92.501 17.188 92.501 16.652C92.501 16.116 92.365 15.704 92.093 15.416C91.829 15.128 91.501 14.984 91.109 14.984C90.709 14.984 90.377 15.128 90.113 15.416C89.849 15.696 89.717 16.108 89.717 16.652C89.717 17.188 89.845 17.6 90.101 17.888C90.365 18.176 90.693 18.32 91.085 18.32ZM99.7576 13.232C100.542 13.232 101.166 13.488 101.63 14C102.102 14.504 102.338 15.2 102.338 16.088V20H100.298V16.364C100.298 15.916 100.182 15.568 99.9496 15.32C99.7176 15.072 99.4056 14.948 99.0136 14.948C98.6216 14.948 98.3096 15.072 98.0776 15.32C97.8456 15.568 97.7296 15.916 97.7296 16.364V20H95.6776V13.304H97.7296V14.192C97.9376 13.896 98.2176 13.664 98.5696 13.496C98.9216 13.32 99.3176 13.232 99.7576 13.232ZM107.124 15.008H106.02V20H103.968V15.008H103.224V13.304H103.968V13.112C103.968 12.288 104.204 11.664 104.676 11.24C105.148 10.808 105.84 10.592 106.752 10.592C106.904 10.592 107.016 10.596 107.088 10.604V12.344C106.696 12.32 106.42 12.376 106.26 12.512C106.1 12.648 106.02 12.892 106.02 13.244V13.304H107.124V15.008ZM109.12 12.608C108.76 12.608 108.464 12.504 108.232 12.296C108.008 12.08 107.896 11.816 107.896 11.504C107.896 11.184 108.008 10.92 108.232 10.712C108.464 10.496 108.76 10.388 109.12 10.388C109.472 10.388 109.76 10.496 109.984 10.712C110.216 10.92 110.332 11.184 110.332 11.504C110.332 11.816 110.216 12.08 109.984 12.296C109.76 12.504 109.472 12.608 109.12 12.608ZM110.14 13.304V20H108.088V13.304H110.14ZM111.219 16.64C111.219 15.952 111.347 15.348 111.603 14.828C111.867 14.308 112.223 13.908 112.671 13.628C113.119 13.348 113.619 13.208 114.171 13.208C114.611 13.208 115.011 13.3 115.371 13.484C115.739 13.668 116.027 13.916 116.235 14.228V11.12H118.287V20H116.235V19.04C116.043 19.36 115.767 19.616 115.407 19.808C115.055 20 114.643 20.096 114.171 20.096C113.619 20.096 113.119 19.956 112.671 19.676C112.223 19.388 111.867 18.984 111.603 18.464C111.347 17.936 111.219 17.328 111.219 16.64ZM116.235 16.652C116.235 16.14 116.091 15.736 115.803 15.44C115.523 15.144 115.179 14.996 114.771 14.996C114.363 14.996 114.015 15.144 113.727 15.44C113.447 15.728 113.307 16.128 113.307 16.64C113.307 17.152 113.447 17.56 113.727 17.864C114.015 18.16 114.363 18.308 114.771 18.308C115.179 18.308 115.523 18.16 115.803 17.864C116.091 17.568 116.235 17.164 116.235 16.652ZM126.083 16.544C126.083 16.736 126.071 16.936 126.047 17.144H121.403C121.435 17.56 121.567 17.88 121.799 18.104C122.039 18.32 122.331 18.428 122.675 18.428C123.187 18.428 123.543 18.212 123.743 17.78H125.927C125.815 18.22 125.611 18.616 125.315 18.968C125.027 19.32 124.663 19.596 124.223 19.796C123.783 19.996 123.291 20.096 122.747 20.096C122.091 20.096 121.507 19.956 120.995 19.676C120.483 19.396 120.083 18.996 119.795 18.476C119.507 17.956 119.363 17.348 119.363 16.652C119.363 15.956 119.503 15.348 119.783 14.828C120.071 14.308 120.471 13.908 120.983 13.628C121.495 13.348 122.083 13.208 122.747 13.208C123.395 13.208 123.971 13.344 124.475 13.616C124.979 13.888 125.371 14.276 125.651 14.78C125.939 15.284 126.083 15.872 126.083 16.544ZM123.983 16.004C123.983 15.652 123.863 15.372 123.623 15.164C123.383 14.956 123.083 14.852 122.723 14.852C122.379 14.852 122.087 14.952 121.847 15.152C121.615 15.352 121.471 15.636 121.415 16.004H123.983ZM131.246 13.232C132.03 13.232 132.654 13.488 133.118 14C133.59 14.504 133.826 15.2 133.826 16.088V20H131.786V16.364C131.786 15.916 131.67 15.568 131.438 15.32C131.206 15.072 130.894 14.948 130.502 14.948C130.11 14.948 129.798 15.072 129.566 15.32C129.334 15.568 129.218 15.916 129.218 16.364V20H127.166V13.304H129.218V14.192C129.426 13.896 129.706 13.664 130.058 13.496C130.41 13.32 130.806 13.232 131.246 13.232ZM138.984 18.26V20H137.94C137.196 20 136.616 19.82 136.2 19.46C135.784 19.092 135.576 18.496 135.576 17.672V15.008H134.76V13.304H135.576V11.672H137.628V13.304H138.972V15.008H137.628V17.696C137.628 17.896 137.676 18.04 137.772 18.128C137.868 18.216 138.028 18.26 138.252 18.26H138.984ZM141.159 12.608C140.799 12.608 140.503 12.504 140.271 12.296C140.047 12.08 139.935 11.816 139.935 11.504C139.935 11.184 140.047 10.92 140.271 10.712C140.503 10.496 140.799 10.388 141.159 10.388C141.511 10.388 141.799 10.496 142.023 10.712C142.255 10.92 142.371 11.184 142.371 11.504C142.371 11.816 142.255 12.08 142.023 12.296C141.799 12.504 141.511 12.608 141.159 12.608ZM142.179 13.304V20H140.127V13.304H142.179ZM143.258 16.64C143.258 15.952 143.386 15.348 143.642 14.828C143.906 14.308 144.262 13.908 144.71 13.628C145.158 13.348 145.658 13.208 146.21 13.208C146.682 13.208 147.094 13.304 147.446 13.496C147.806 13.688 148.082 13.94 148.274 14.252V13.304H150.326V20H148.274V19.052C148.074 19.364 147.794 19.616 147.434 19.808C147.082 20 146.67 20.096 146.198 20.096C145.654 20.096 145.158 19.956 144.71 19.676C144.262 19.388 143.906 18.984 143.642 18.464C143.386 17.936 143.258 17.328 143.258 16.64ZM148.274 16.652C148.274 16.14 148.13 15.736 147.842 15.44C147.562 15.144 147.218 14.996 146.81 14.996C146.402 14.996 146.054 15.144 145.766 15.44C145.486 15.728 145.346 16.128 145.346 16.64C145.346 17.152 145.486 17.56 145.766 17.864C146.054 18.16 146.402 18.308 146.81 18.308C147.218 18.308 147.562 18.16 147.842 17.864C148.13 17.568 148.274 17.164 148.274 16.652ZM153.862 11.12V20H151.81V11.12H153.862Z" fill="#454545"/>
<path d="M50.31 27.745L48.24 31.732V34H47.214V31.732L45.135 27.745H46.278L47.727 30.814L49.176 27.745H50.31ZM53.2752 34.081C52.8072 34.081 52.3842 33.976 52.0062 33.766C51.6282 33.55 51.3312 33.25 51.1152 32.866C50.8992 32.476 50.7912 32.026 50.7912 31.516C50.7912 31.012 50.9022 30.565 51.1242 30.175C51.3462 29.785 51.6492 29.485 52.0332 29.275C52.4172 29.065 52.8462 28.96 53.3202 28.96C53.7942 28.96 54.2232 29.065 54.6072 29.275C54.9912 29.485 55.2942 29.785 55.5162 30.175C55.7382 30.565 55.8492 31.012 55.8492 31.516C55.8492 32.02 55.7352 32.467 55.5072 32.857C55.2792 33.247 54.9672 33.55 54.5712 33.766C54.1812 33.976 53.7492 34.081 53.2752 34.081ZM53.2752 33.19C53.5392 33.19 53.7852 33.127 54.0132 33.001C54.2472 32.875 54.4362 32.686 54.5802 32.434C54.7242 32.182 54.7962 31.876 54.7962 31.516C54.7962 31.156 54.7272 30.853 54.5892 30.607C54.4512 30.355 54.2682 30.166 54.0402 30.04C53.8122 29.914 53.5662 29.851 53.3022 29.851C53.0382 29.851 52.7922 29.914 52.5642 30.04C52.3422 30.166 52.1652 30.355 52.0332 30.607C51.9012 30.853 51.8352 31.156 51.8352 31.516C51.8352 32.05 51.9702 32.464 52.2402 32.758C52.5162 33.046 52.8612 33.19 53.2752 33.19ZM61.3545 29.041V34H60.3285V33.415C60.1665 33.619 59.9535 33.781 59.6895 33.901C59.4315 34.015 59.1555 34.072 58.8615 34.072C58.4715 34.072 58.1205 33.991 57.8085 33.829C57.5025 33.667 57.2595 33.427 57.0795 33.109C56.9055 32.791 56.8185 32.407 56.8185 31.957V29.041H57.8355V31.804C57.8355 32.248 57.9465 32.59 58.1685 32.83C58.3905 33.064 58.6935 33.181 59.0775 33.181C59.4615 33.181 59.7645 33.064 59.9865 32.83C60.2145 32.59 60.3285 32.248 60.3285 31.804V29.041H61.3545ZM63.7342 29.761C63.8842 29.509 64.0822 29.314 64.3282 29.176C64.5802 29.032 64.8772 28.96 65.2192 28.96V30.022H64.9582C64.5562 30.022 64.2502 30.124 64.0402 30.328C63.8362 30.532 63.7342 30.886 63.7342 31.39V34H62.7082V29.041H63.7342V29.761ZM75.1602 29.041L73.6212 34H72.5412L71.5422 30.337L70.5432 34H69.4632L67.9152 29.041H68.9592L69.9942 33.028L71.0472 29.041H72.1182L73.1262 33.01L74.1522 29.041H75.1602ZM78.078 34.081C77.61 34.081 77.187 33.976 76.809 33.766C76.431 33.55 76.134 33.25 75.918 32.866C75.702 32.476 75.594 32.026 75.594 31.516C75.594 31.012 75.705 30.565 75.927 30.175C76.149 29.785 76.452 29.485 76.836 29.275C77.22 29.065 77.649 28.96 78.123 28.96C78.597 28.96 79.026 29.065 79.41 29.275C79.794 29.485 80.097 29.785 80.319 30.175C80.541 30.565 80.652 31.012 80.652 31.516C80.652 32.02 80.538 32.467 80.31 32.857C80.082 33.247 79.77 33.55 79.374 33.766C78.984 33.976 78.552 34.081 78.078 34.081ZM78.078 33.19C78.342 33.19 78.588 33.127 78.816 33.001C79.05 32.875 79.239 32.686 79.383 32.434C79.527 32.182 79.599 31.876 79.599 31.516C79.599 31.156 79.53 30.853 79.392 30.607C79.254 30.355 79.071 30.166 78.843 30.04C78.615 29.914 78.369 29.851 78.105 29.851C77.841 29.851 77.595 29.914 77.367 30.04C77.145 30.166 76.968 30.355 76.836 30.607C76.704 30.853 76.638 31.156 76.638 31.516C76.638 32.05 76.773 32.464 77.043 32.758C77.319 33.046 77.664 33.19 78.078 33.19ZM82.6922 29.761C82.8422 29.509 83.0402 29.314 83.2862 29.176C83.5382 29.032 83.8352 28.96 84.1772 28.96V30.022H83.9162C83.5142 30.022 83.2082 30.124 82.9982 30.328C82.7942 30.532 82.6922 30.886 82.6922 31.39V34H81.6662V29.041H82.6922V29.761ZM87.0823 31.525L89.3683 34H87.9823L86.1463 31.867V34H85.1203V27.34H86.1463V31.21L87.9463 29.041H89.3683L87.0823 31.525ZM92.9636 28.384C92.7776 28.384 92.6216 28.321 92.4956 28.195C92.3696 28.069 92.3066 27.913 92.3066 27.727C92.3066 27.541 92.3696 27.385 92.4956 27.259C92.6216 27.133 92.7776 27.07 92.9636 27.07C93.1436 27.07 93.2966 27.133 93.4226 27.259C93.5486 27.385 93.6116 27.541 93.6116 27.727C93.6116 27.913 93.5486 28.069 93.4226 28.195C93.2966 28.321 93.1436 28.384 92.9636 28.384ZM93.4676 29.041V34H92.4416V29.041H93.4676ZM96.6146 34.081C96.2246 34.081 95.8736 34.012 95.5616 33.874C95.2556 33.73 95.0126 33.538 94.8326 33.298C94.6526 33.052 94.5566 32.779 94.5446 32.479H95.6066C95.6246 32.689 95.7236 32.866 95.9036 33.01C96.0896 33.148 96.3206 33.217 96.5966 33.217C96.8846 33.217 97.1066 33.163 97.2626 33.055C97.4246 32.941 97.5056 32.797 97.5056 32.623C97.5056 32.437 97.4156 32.299 97.2356 32.209C97.0616 32.119 96.7826 32.02 96.3986 31.912C96.0266 31.81 95.7236 31.711 95.4896 31.615C95.2556 31.519 95.0516 31.372 94.8776 31.174C94.7096 30.976 94.6256 30.715 94.6256 30.391C94.6256 30.127 94.7036 29.887 94.8596 29.671C95.0156 29.449 95.2376 29.275 95.5256 29.149C95.8196 29.023 96.1556 28.96 96.5336 28.96C97.0976 28.96 97.5506 29.104 97.8926 29.392C98.2406 29.674 98.4266 30.061 98.4506 30.553H97.4246C97.4066 30.331 97.3166 30.154 97.1546 30.022C96.9926 29.89 96.7736 29.824 96.4976 29.824C96.2276 29.824 96.0206 29.875 95.8766 29.977C95.7326 30.079 95.6606 30.214 95.6606 30.382C95.6606 30.514 95.7086 30.625 95.8046 30.715C95.9006 30.805 96.0176 30.877 96.1556 30.931C96.2936 30.979 96.4976 31.042 96.7676 31.12C97.1276 31.216 97.4216 31.315 97.6496 31.417C97.8836 31.513 98.0846 31.657 98.2526 31.849C98.4206 32.041 98.5076 32.296 98.5136 32.614C98.5136 32.896 98.4356 33.148 98.2796 33.37C98.1236 33.592 97.9016 33.766 97.6136 33.892C97.3316 34.018 96.9986 34.081 96.6146 34.081ZM104.462 28.96C104.852 28.96 105.2 29.041 105.506 29.203C105.818 29.365 106.061 29.605 106.235 29.923C106.409 30.241 106.496 30.625 106.496 31.075V34H105.479V31.228C105.479 30.784 105.368 30.445 105.146 30.211C104.924 29.971 104.621 29.851 104.237 29.851C103.853 29.851 103.547 29.971 103.319 30.211C103.097 30.445 102.986 30.784 102.986 31.228V34H101.96V29.041H102.986V29.608C103.154 29.404 103.367 29.245 103.625 29.131C103.889 29.017 104.168 28.96 104.462 28.96ZM112.35 31.399C112.35 31.585 112.338 31.753 112.314 31.903H108.525C108.555 32.299 108.702 32.617 108.966 32.857C109.23 33.097 109.554 33.217 109.938 33.217C110.49 33.217 110.88 32.986 111.108 32.524H112.215C112.065 32.98 111.792 33.355 111.396 33.649C111.006 33.937 110.52 34.081 109.938 34.081C109.464 34.081 109.038 33.976 108.66 33.766C108.288 33.55 107.994 33.25 107.778 32.866C107.568 32.476 107.463 32.026 107.463 31.516C107.463 31.006 107.565 30.559 107.769 30.175C107.979 29.785 108.27 29.485 108.642 29.275C109.02 29.065 109.452 28.96 109.938 28.96C110.406 28.96 110.823 29.062 111.189 29.266C111.555 29.47 111.84 29.758 112.044 30.13C112.248 30.496 112.35 30.919 112.35 31.399ZM111.279 31.075C111.273 30.697 111.138 30.394 110.874 30.166C110.61 29.938 110.283 29.824 109.893 29.824C109.539 29.824 109.236 29.938 108.984 30.166C108.732 30.388 108.582 30.691 108.534 31.075H111.279ZM115.277 33.082L116.681 29.041H117.77L115.88 34H114.656L112.775 29.041H113.873L115.277 33.082ZM123.09 31.399C123.09 31.585 123.078 31.753 123.054 31.903H119.265C119.295 32.299 119.442 32.617 119.706 32.857C119.97 33.097 120.294 33.217 120.678 33.217C121.23 33.217 121.62 32.986 121.848 32.524H122.955C122.805 32.98 122.532 33.355 122.136 33.649C121.746 33.937 121.26 34.081 120.678 34.081C120.204 34.081 119.778 33.976 119.4 33.766C119.028 33.55 118.734 33.25 118.518 32.866C118.308 32.476 118.203 32.026 118.203 31.516C118.203 31.006 118.305 30.559 118.509 30.175C118.719 29.785 119.01 29.485 119.382 29.275C119.76 29.065 120.192 28.96 120.678 28.96C121.146 28.96 121.563 29.062 121.929 29.266C122.295 29.47 122.58 29.758 122.784 30.13C122.988 30.496 123.09 30.919 123.09 31.399ZM122.019 31.075C122.013 30.697 121.878 30.394 121.614 30.166C121.35 29.938 121.023 29.824 120.633 29.824C120.279 29.824 119.976 29.938 119.724 30.166C119.472 30.388 119.322 30.691 119.274 31.075H122.019ZM125.126 29.761C125.276 29.509 125.474 29.314 125.72 29.176C125.972 29.032 126.269 28.96 126.611 28.96V30.022H126.35C125.948 30.022 125.642 30.124 125.432 30.328C125.228 30.532 125.126 30.886 125.126 31.39V34H124.1V29.041H125.126V29.761ZM131.692 34.081C131.302 34.081 130.951 34.012 130.639 33.874C130.333 33.73 130.09 33.538 129.91 33.298C129.73 33.052 129.634 32.779 129.622 32.479H130.684C130.702 32.689 130.801 32.866 130.981 33.01C131.167 33.148 131.398 33.217 131.674 33.217C131.962 33.217 132.184 33.163 132.34 33.055C132.502 32.941 132.583 32.797 132.583 32.623C132.583 32.437 132.493 32.299 132.313 32.209C132.139 32.119 131.86 32.02 131.476 31.912C131.104 31.81 130.801 31.711 130.567 31.615C130.333 31.519 130.129 31.372 129.955 31.174C129.787 30.976 129.703 30.715 129.703 30.391C129.703 30.127 129.781 29.887 129.937 29.671C130.093 29.449 130.315 29.275 130.603 29.149C130.897 29.023 131.233 28.96 131.611 28.96C132.175 28.96 132.628 29.104 132.97 29.392C133.318 29.674 133.504 30.061 133.528 30.553H132.502C132.484 30.331 132.394 30.154 132.232 30.022C132.07 29.89 131.851 29.824 131.575 29.824C131.305 29.824 131.098 29.875 130.954 29.977C130.81 30.079 130.738 30.214 130.738 30.382C130.738 30.514 130.786 30.625 130.882 30.715C130.978 30.805 131.095 30.877 131.233 30.931C131.371 30.979 131.575 31.042 131.845 31.12C132.205 31.216 132.499 31.315 132.727 31.417C132.961 31.513 133.162 31.657 133.33 31.849C133.498 32.041 133.585 32.296 133.591 32.614C133.591 32.896 133.513 33.148 133.357 33.37C133.201 33.592 132.979 33.766 132.691 33.892C132.409 34.018 132.076 34.081 131.692 34.081ZM137.264 28.96C137.642 28.96 137.978 29.041 138.272 29.203C138.572 29.365 138.806 29.605 138.974 29.923C139.148 30.241 139.235 30.625 139.235 31.075V34H138.218V31.228C138.218 30.784 138.107 30.445 137.885 30.211C137.663 29.971 137.36 29.851 136.976 29.851C136.592 29.851 136.286 29.971 136.058 30.211C135.836 30.445 135.725 30.784 135.725 31.228V34H134.699V27.34H135.725V29.617C135.899 29.407 136.118 29.245 136.382 29.131C136.652 29.017 136.946 28.96 137.264 28.96ZM140.202 31.498C140.202 31 140.304 30.559 140.508 30.175C140.718 29.791 141 29.494 141.354 29.284C141.714 29.068 142.11 28.96 142.542 28.96C142.932 28.96 143.271 29.038 143.559 29.194C143.853 29.344 144.087 29.533 144.261 29.761V29.041H145.296V34H144.261V33.262C144.087 33.496 143.85 33.691 143.55 33.847C143.25 34.003 142.908 34.081 142.524 34.081C142.098 34.081 141.708 33.973 141.354 33.757C141 33.535 140.718 33.229 140.508 32.839C140.304 32.443 140.202 31.996 140.202 31.498ZM144.261 31.516C144.261 31.174 144.189 30.877 144.045 30.625C143.907 30.373 143.724 30.181 143.496 30.049C143.268 29.917 143.022 29.851 142.758 29.851C142.494 29.851 142.248 29.917 142.02 30.049C141.792 30.175 141.606 30.364 141.462 30.616C141.324 30.862 141.255 31.156 141.255 31.498C141.255 31.84 141.324 32.14 141.462 32.398C141.606 32.656 141.792 32.854 142.02 32.992C142.254 33.124 142.5 33.19 142.758 33.19C143.022 33.19 143.268 33.124 143.496 32.992C143.724 32.86 143.907 32.668 144.045 32.416C144.189 32.158 144.261 31.858 144.261 31.516ZM147.67 29.761C147.82 29.509 148.018 29.314 148.264 29.176C148.516 29.032 148.813 28.96 149.155 28.96V30.022H148.894C148.492 30.022 148.186 30.124 147.976 30.328C147.772 30.532 147.67 30.886 147.67 31.39V34H146.644V29.041H147.67V29.761ZM154.643 31.399C154.643 31.585 154.631 31.753 154.607 31.903H150.818C150.848 32.299 150.995 32.617 151.259 32.857C151.523 33.097 151.847 33.217 152.231 33.217C152.783 33.217 153.173 32.986 153.401 32.524H154.508C154.358 32.98 154.085 33.355 153.689 33.649C153.299 33.937 152.813 34.081 152.231 34.081C151.757 34.081 151.331 33.976 150.953 33.766C150.581 33.55 150.287 33.25 150.071 32.866C149.861 32.476 149.756 32.026 149.756 31.516C149.756 31.006 149.858 30.559 150.062 30.175C150.272 29.785 150.563 29.485 150.935 29.275C151.313 29.065 151.745 28.96 152.231 28.96C152.699 28.96 153.116 29.062 153.482 29.266C153.848 29.47 154.133 29.758 154.337 30.13C154.541 30.496 154.643 30.919 154.643 31.399ZM153.572 31.075C153.566 30.697 153.431 30.394 153.167 30.166C152.903 29.938 152.576 29.824 152.186 29.824C151.832 29.824 151.529 29.938 151.277 30.166C151.025 30.388 150.875 30.691 150.827 31.075H153.572ZM155.311 31.498C155.311 31 155.413 30.559 155.617 30.175C155.827 29.791 156.109 29.494 156.463 29.284C156.823 29.068 157.222 28.96 157.66 28.96C157.984 28.96 158.302 29.032 158.614 29.176C158.932 29.314 159.184 29.5 159.37 29.734V27.34H160.405V34H159.37V33.253C159.202 33.493 158.968 33.691 158.668 33.847C158.374 34.003 158.035 34.081 157.651 34.081C157.219 34.081 156.823 33.973 156.463 33.757C156.109 33.535 155.827 33.229 155.617 32.839C155.413 32.443 155.311 31.996 155.311 31.498ZM159.37 31.516C159.37 31.174 159.298 30.877 159.154 30.625C159.016 30.373 158.833 30.181 158.605 30.049C158.377 29.917 158.131 29.851 157.867 29.851C157.603 29.851 157.357 29.917 157.129 30.049C156.901 30.175 156.715 30.364 156.571 30.616C156.433 30.862 156.364 31.156 156.364 31.498C156.364 31.84 156.433 32.14 156.571 32.398C156.715 32.656 156.901 32.854 157.129 32.992C157.363 33.124 157.609 33.19 157.867 33.19C158.131 33.19 158.377 33.124 158.605 32.992C158.833 32.86 159.016 32.668 159.154 32.416C159.298 32.158 159.37 31.858 159.37 31.516Z" fill="#5F5F5F"/>
</svg>
