<svg width="130" height="46" viewBox="0 0 130 46" fill="none" xmlns="http://www.w3.org/2000/svg">
<rect x="0.51001" y="0.5" width="129" height="45" rx="3.5" fill="white"/>
<rect x="0.51001" y="0.5" width="129" height="45" rx="3.5" stroke="#CCCCCC"/>
<path d="M22.7501 37.755C23.1251 37.835 23.5001 37.915 23.8951 37.985C23.9301 37.995 23.9701 38 24.0101 38C24.0501 38 24.0901 37.995 24.1251 37.985C24.5101 37.915 24.9001 37.835 25.2651 37.75C27.2151 37.295 29.0251 36.56 30.6551 35.565C33.9001 33.57 36.2451 30.655 37.2551 27.365C37.6351 26.145 37.8301 24.88 37.8301 23.61V12.35C37.8301 12.13 37.6851 11.93 37.4751 11.87L24.1501 8.02C24.1051 8.005 24.0601 8 24.0101 8C23.9601 8 23.9151 8.005 23.8701 8.02L10.5501 11.87C10.3351 11.93 10.1901 12.125 10.1901 12.35V23.61C10.1901 30.205 15.3501 36.02 22.7501 37.755ZM12.7001 24.305C12.9751 24.275 13.2201 24.47 13.2551 24.745C13.6451 28.03 15.7201 31.045 18.9451 33.015C19.1801 33.16 19.2551 33.465 19.1101 33.705C19.0151 33.855 18.8501 33.94 18.6851 33.94C18.5951 33.94 18.5051 33.92 18.4251 33.87C14.9351 31.74 12.6901 28.455 12.2601 24.86C12.2301 24.59 12.4251 24.34 12.7001 24.305ZM36.8301 23.61C36.8301 24.78 36.6551 25.94 36.3001 27.07C35.3601 30.13 33.1701 32.845 30.1351 34.715C28.5951 35.65 26.8801 36.345 25.0451 36.775C24.8701 36.815 24.6901 36.855 24.5101 36.89V9.165L36.8301 12.725V23.61Z" fill="#0075C4"/>
<path d="M30.7145 13.0384L34.832 14.2274V23.6099C34.832 23.8859 35.0555 24.1099 35.332 24.1099C35.6085 24.1099 35.832 23.8859 35.832 23.6099V13.8519C35.832 13.6294 35.6845 13.4334 35.4705 13.3714L30.9915 12.0779C30.726 12.0024 30.4495 12.1544 30.3725 12.4199C30.296 12.6849 30.449 12.9624 30.7145 13.0389V13.0384Z" fill="#0075C4"/>
<path d="M52.174 14.288C52.174 14.776 52.062 15.224 51.838 15.632C51.614 16.032 51.27 16.356 50.806 16.604C50.342 16.852 49.766 16.976 49.078 16.976H47.806V20H45.754V11.576H49.078C49.75 11.576 50.318 11.692 50.782 11.924C51.246 12.156 51.594 12.476 51.826 12.884C52.058 13.292 52.174 13.76 52.174 14.288ZM48.922 15.344C49.314 15.344 49.606 15.252 49.798 15.068C49.99 14.884 50.086 14.624 50.086 14.288C50.086 13.952 49.99 13.692 49.798 13.508C49.606 13.324 49.314 13.232 48.922 13.232H47.806V15.344H48.922ZM55.2943 14.42C55.5343 14.052 55.8343 13.764 56.1943 13.556C56.5543 13.34 56.9543 13.232 57.3943 13.232V15.404H56.8303C56.3183 15.404 55.9343 15.516 55.6783 15.74C55.4223 15.956 55.2943 16.34 55.2943 16.892V20H53.2423V13.304H55.2943V14.42ZM59.4071 12.608C59.0471 12.608 58.7511 12.504 58.5191 12.296C58.2951 12.08 58.1831 11.816 58.1831 11.504C58.1831 11.184 58.2951 10.92 58.5191 10.712C58.7511 10.496 59.0471 10.388 59.4071 10.388C59.7591 10.388 60.0471 10.496 60.2711 10.712C60.5031 10.92 60.6191 11.184 60.6191 11.504C60.6191 11.816 60.5031 12.08 60.2711 12.296C60.0471 12.504 59.7591 12.608 59.4071 12.608ZM60.4271 13.304V20H58.3751V13.304H60.4271ZM64.9262 18.08L66.3782 13.304H68.5622L66.1862 20H63.6542L61.2782 13.304H63.4742L64.9262 18.08ZM69.0179 16.64C69.0179 15.952 69.1459 15.348 69.4019 14.828C69.6659 14.308 70.0219 13.908 70.4699 13.628C70.9179 13.348 71.4179 13.208 71.9699 13.208C72.4419 13.208 72.8539 13.304 73.2059 13.496C73.5659 13.688 73.8419 13.94 74.0339 14.252V13.304H76.0859V20H74.0339V19.052C73.8339 19.364 73.5539 19.616 73.1939 19.808C72.8419 20 72.4299 20.096 71.9579 20.096C71.4139 20.096 70.9179 19.956 70.4699 19.676C70.0219 19.388 69.6659 18.984 69.4019 18.464C69.1459 17.936 69.0179 17.328 69.0179 16.64ZM74.0339 16.652C74.0339 16.14 73.8899 15.736 73.6019 15.44C73.3219 15.144 72.9779 14.996 72.5699 14.996C72.1619 14.996 71.8139 15.144 71.5259 15.44C71.2459 15.728 71.1059 16.128 71.1059 16.64C71.1059 17.152 71.2459 17.56 71.5259 17.864C71.8139 18.16 72.1619 18.308 72.5699 18.308C72.9779 18.308 73.3219 18.16 73.6019 17.864C73.8899 17.568 74.0339 17.164 74.0339 16.652ZM77.1624 16.652C77.1624 15.956 77.3024 15.348 77.5824 14.828C77.8704 14.308 78.2664 13.908 78.7704 13.628C79.2824 13.348 79.8664 13.208 80.5224 13.208C81.3624 13.208 82.0624 13.428 82.6224 13.868C83.1904 14.308 83.5624 14.928 83.7384 15.728H81.5544C81.3704 15.216 81.0144 14.96 80.4864 14.96C80.1104 14.96 79.8104 15.108 79.5864 15.404C79.3624 15.692 79.2504 16.108 79.2504 16.652C79.2504 17.196 79.3624 17.616 79.5864 17.912C79.8104 18.2 80.1104 18.344 80.4864 18.344C81.0144 18.344 81.3704 18.088 81.5544 17.576H83.7384C83.5624 18.36 83.1904 18.976 82.6224 19.424C82.0544 19.872 81.3544 20.096 80.5224 20.096C79.8664 20.096 79.2824 19.956 78.7704 19.676C78.2664 19.396 77.8704 18.996 77.5824 18.476C77.3024 17.956 77.1624 17.348 77.1624 16.652ZM91.676 13.304L87.476 23.18H85.268L86.804 19.772L84.08 13.304H86.372L87.92 17.492L89.456 13.304H91.676ZM100.445 11.576V13.22H97.013V14.996H99.581V16.592H97.013V20H94.961V11.576H100.445ZM102.556 12.608C102.196 12.608 101.9 12.504 101.668 12.296C101.444 12.08 101.332 11.816 101.332 11.504C101.332 11.184 101.444 10.92 101.668 10.712C101.9 10.496 102.196 10.388 102.556 10.388C102.908 10.388 103.196 10.496 103.42 10.712C103.652 10.92 103.768 11.184 103.768 11.504C103.768 11.816 103.652 12.08 103.42 12.296C103.196 12.504 102.908 12.608 102.556 12.608ZM103.576 13.304V20H101.524V13.304H103.576ZM107.115 14.42C107.355 14.052 107.655 13.764 108.015 13.556C108.375 13.34 108.775 13.232 109.215 13.232V15.404H108.651C108.139 15.404 107.755 15.516 107.499 15.74C107.243 15.956 107.115 16.34 107.115 16.892V20H105.063V13.304H107.115V14.42ZM112.919 20.096C112.335 20.096 111.815 19.996 111.359 19.796C110.903 19.596 110.543 19.324 110.279 18.98C110.015 18.628 109.867 18.236 109.835 17.804H111.863C111.887 18.036 111.995 18.224 112.187 18.368C112.379 18.512 112.615 18.584 112.895 18.584C113.151 18.584 113.347 18.536 113.483 18.44C113.627 18.336 113.699 18.204 113.699 18.044C113.699 17.852 113.599 17.712 113.399 17.624C113.199 17.528 112.875 17.424 112.427 17.312C111.947 17.2 111.547 17.084 111.227 16.964C110.907 16.836 110.631 16.64 110.399 16.376C110.167 16.104 110.051 15.74 110.051 15.284C110.051 14.9 110.155 14.552 110.363 14.24C110.579 13.92 110.891 13.668 111.299 13.484C111.715 13.3 112.207 13.208 112.775 13.208C113.615 13.208 114.275 13.416 114.755 13.832C115.243 14.248 115.523 14.8 115.595 15.488H113.699C113.667 15.256 113.563 15.072 113.387 14.936C113.219 14.8 112.995 14.732 112.715 14.732C112.475 14.732 112.291 14.78 112.163 14.876C112.035 14.964 111.971 15.088 111.971 15.248C111.971 15.44 112.071 15.584 112.271 15.68C112.479 15.776 112.799 15.872 113.231 15.968C113.727 16.096 114.131 16.224 114.443 16.352C114.755 16.472 115.027 16.672 115.259 16.952C115.499 17.224 115.623 17.592 115.631 18.056C115.631 18.448 115.519 18.8 115.295 19.112C115.079 19.416 114.763 19.656 114.347 19.832C113.939 20.008 113.463 20.096 112.919 20.096ZM120.619 18.26V20H119.575C118.831 20 118.251 19.82 117.835 19.46C117.419 19.092 117.211 18.496 117.211 17.672V15.008H116.395V13.304H117.211V11.672H119.263V13.304H120.607V15.008H119.263V17.696C119.263 17.896 119.311 18.04 119.407 18.128C119.503 18.216 119.663 18.26 119.887 18.26H120.619Z" fill="#454545"/>
<path d="M50.212 29.545C50.05 29.233 49.825 28.999 49.537 28.843C49.249 28.681 48.916 28.6 48.538 28.6C48.124 28.6 47.755 28.693 47.431 28.879C47.107 29.065 46.852 29.329 46.666 29.671C46.486 30.013 46.396 30.409 46.396 30.859C46.396 31.309 46.486 31.708 46.666 32.056C46.852 32.398 47.107 32.662 47.431 32.848C47.755 33.034 48.124 33.127 48.538 33.127C49.096 33.127 49.549 32.971 49.897 32.659C50.245 32.347 50.458 31.924 50.536 31.39H48.187V30.571H51.634V31.372C51.568 31.858 51.394 32.305 51.112 32.713C50.836 33.121 50.473 33.448 50.023 33.694C49.579 33.934 49.084 34.054 48.538 34.054C47.95 34.054 47.413 33.919 46.927 33.649C46.441 33.373 46.054 32.992 45.766 32.506C45.484 32.02 45.343 31.471 45.343 30.859C45.343 30.247 45.484 29.698 45.766 29.212C46.054 28.726 46.441 28.348 46.927 28.078C47.419 27.802 47.956 27.664 48.538 27.664C49.204 27.664 49.795 27.829 50.311 28.159C50.833 28.483 51.211 28.945 51.445 29.545H50.212ZM54.6889 27.745C55.3549 27.745 55.9369 27.874 56.4349 28.132C56.9389 28.384 57.3259 28.75 57.5959 29.23C57.8719 29.704 58.0099 30.259 58.0099 30.895C58.0099 31.531 57.8719 32.083 57.5959 32.551C57.3259 33.019 56.9389 33.379 56.4349 33.631C55.9369 33.877 55.3549 34 54.6889 34H52.6459V27.745H54.6889ZM54.6889 33.163C55.4209 33.163 55.9819 32.965 56.3719 32.569C56.7619 32.173 56.9569 31.615 56.9569 30.895C56.9569 30.169 56.7619 29.602 56.3719 29.194C55.9819 28.786 55.4209 28.582 54.6889 28.582H53.6719V33.163H54.6889ZM63.4008 29.608C63.4008 29.926 63.3258 30.226 63.1758 30.508C63.0258 30.79 62.7858 31.021 62.4558 31.201C62.1258 31.375 61.7028 31.462 61.1868 31.462H60.0528V34H59.0268V27.745H61.1868C61.6668 27.745 62.0718 27.829 62.4018 27.997C62.7378 28.159 62.9868 28.381 63.1488 28.663C63.3168 28.945 63.4008 29.26 63.4008 29.608ZM61.1868 30.625C61.5768 30.625 61.8678 30.538 62.0598 30.364C62.2518 30.184 62.3478 29.932 62.3478 29.608C62.3478 28.924 61.9608 28.582 61.1868 28.582H60.0528V30.625H61.1868ZM67.6283 34L66.1883 31.498H65.4053V34H64.3793V27.745H66.5393C67.0193 27.745 67.4243 27.829 67.7543 27.997C68.0903 28.165 68.3393 28.39 68.5013 28.672C68.6693 28.954 68.7533 29.269 68.7533 29.617C68.7533 30.025 68.6333 30.397 68.3933 30.733C68.1593 31.063 67.7963 31.288 67.3043 31.408L68.8523 34H67.6283ZM65.4053 30.679H66.5393C66.9233 30.679 67.2113 30.583 67.4033 30.391C67.6013 30.199 67.7003 29.941 67.7003 29.617C67.7003 29.293 67.6043 29.041 67.4123 28.861C67.2203 28.675 66.9293 28.582 66.5393 28.582H65.4053V30.679ZM72.0618 30.859C72.0618 30.247 72.2028 29.698 72.4848 29.212C72.7728 28.726 73.1598 28.348 73.6458 28.078C74.1378 27.802 74.6748 27.664 75.2568 27.664C75.9228 27.664 76.5138 27.829 77.0298 28.159C77.5518 28.483 77.9298 28.945 78.1638 29.545H76.9308C76.7688 29.215 76.5438 28.969 76.2558 28.807C75.9678 28.645 75.6348 28.564 75.2568 28.564C74.8428 28.564 74.4738 28.657 74.1498 28.843C73.8258 29.029 73.5708 29.296 73.3848 29.644C73.2048 29.992 73.1148 30.397 73.1148 30.859C73.1148 31.321 73.2048 31.726 73.3848 32.074C73.5708 32.422 73.8258 32.692 74.1498 32.884C74.4738 33.07 74.8428 33.163 75.2568 33.163C75.6348 33.163 75.9678 33.082 76.2558 32.92C76.5438 32.758 76.7688 32.512 76.9308 32.182H78.1638C77.9298 32.782 77.5518 33.244 77.0298 33.568C76.5138 33.892 75.9228 34.054 75.2568 34.054C74.6688 34.054 74.1318 33.919 73.6458 33.649C73.1598 33.373 72.7728 32.992 72.4848 32.506C72.2028 32.02 72.0618 31.471 72.0618 30.859ZM81.5157 34.081C81.0477 34.081 80.6247 33.976 80.2467 33.766C79.8687 33.55 79.5717 33.25 79.3557 32.866C79.1397 32.476 79.0317 32.026 79.0317 31.516C79.0317 31.012 79.1427 30.565 79.3647 30.175C79.5867 29.785 79.8897 29.485 80.2737 29.275C80.6577 29.065 81.0867 28.96 81.5607 28.96C82.0347 28.96 82.4637 29.065 82.8477 29.275C83.2317 29.485 83.5347 29.785 83.7567 30.175C83.9787 30.565 84.0897 31.012 84.0897 31.516C84.0897 32.02 83.9757 32.467 83.7477 32.857C83.5197 33.247 83.2077 33.55 82.8117 33.766C82.4217 33.976 81.9897 34.081 81.5157 34.081ZM81.5157 33.19C81.7797 33.19 82.0257 33.127 82.2537 33.001C82.4877 32.875 82.6767 32.686 82.8207 32.434C82.9647 32.182 83.0367 31.876 83.0367 31.516C83.0367 31.156 82.9677 30.853 82.8297 30.607C82.6917 30.355 82.5087 30.166 82.2807 30.04C82.0527 29.914 81.8067 29.851 81.5427 29.851C81.2787 29.851 81.0327 29.914 80.8047 30.04C80.5827 30.166 80.4057 30.355 80.2737 30.607C80.1417 30.853 80.0757 31.156 80.0757 31.516C80.0757 32.05 80.2107 32.464 80.4807 32.758C80.7567 33.046 81.1017 33.19 81.5157 33.19ZM91.107 28.96C91.497 28.96 91.845 29.041 92.151 29.203C92.463 29.365 92.706 29.605 92.88 29.923C93.06 30.241 93.15 30.625 93.15 31.075V34H92.133V31.228C92.133 30.784 92.022 30.445 91.8 30.211C91.578 29.971 91.275 29.851 90.891 29.851C90.507 29.851 90.201 29.971 89.973 30.211C89.751 30.445 89.64 30.784 89.64 31.228V34H88.623V31.228C88.623 30.784 88.512 30.445 88.29 30.211C88.068 29.971 87.765 29.851 87.381 29.851C86.997 29.851 86.691 29.971 86.463 30.211C86.241 30.445 86.13 30.784 86.13 31.228V34H85.104V29.041H86.13V29.608C86.298 29.404 86.511 29.245 86.769 29.131C87.027 29.017 87.303 28.96 87.597 28.96C87.993 28.96 88.347 29.044 88.659 29.212C88.971 29.38 89.211 29.623 89.379 29.941C89.529 29.641 89.763 29.404 90.081 29.23C90.399 29.05 90.741 28.96 91.107 28.96ZM95.4815 29.77C95.6555 29.542 95.8925 29.35 96.1925 29.194C96.4925 29.038 96.8315 28.96 97.2095 28.96C97.6415 28.96 98.0345 29.068 98.3885 29.284C98.7485 29.494 99.0305 29.791 99.2345 30.175C99.4385 30.559 99.5405 31 99.5405 31.498C99.5405 31.996 99.4385 32.443 99.2345 32.839C99.0305 33.229 98.7485 33.535 98.3885 33.757C98.0345 33.973 97.6415 34.081 97.2095 34.081C96.8315 34.081 96.4955 34.006 96.2015 33.856C95.9075 33.7 95.6675 33.508 95.4815 33.28V36.358H94.4555V29.041H95.4815V29.77ZM98.4965 31.498C98.4965 31.156 98.4245 30.862 98.2805 30.616C98.1425 30.364 97.9565 30.175 97.7225 30.049C97.4945 29.917 97.2485 29.851 96.9845 29.851C96.7265 29.851 96.4805 29.917 96.2465 30.049C96.0185 30.181 95.8325 30.373 95.6885 30.625C95.5505 30.877 95.4815 31.174 95.4815 31.516C95.4815 31.858 95.5505 32.158 95.6885 32.416C95.8325 32.668 96.0185 32.86 96.2465 32.992C96.4805 33.124 96.7265 33.19 96.9845 33.19C97.2485 33.19 97.4945 33.124 97.7225 32.992C97.9565 32.854 98.1425 32.656 98.2805 32.398C98.4245 32.14 98.4965 31.84 98.4965 31.498ZM101.581 27.34V34H100.555V27.34H101.581ZM103.45 28.384C103.264 28.384 103.108 28.321 102.982 28.195C102.856 28.069 102.793 27.913 102.793 27.727C102.793 27.541 102.856 27.385 102.982 27.259C103.108 27.133 103.264 27.07 103.45 27.07C103.63 27.07 103.783 27.133 103.909 27.259C104.035 27.385 104.098 27.541 104.098 27.727C104.098 27.913 104.035 28.069 103.909 28.195C103.783 28.321 103.63 28.384 103.45 28.384ZM103.954 29.041V34H102.928V29.041H103.954ZM104.959 31.498C104.959 31 105.061 30.559 105.265 30.175C105.475 29.791 105.757 29.494 106.111 29.284C106.471 29.068 106.867 28.96 107.299 28.96C107.689 28.96 108.028 29.038 108.316 29.194C108.61 29.344 108.844 29.533 109.018 29.761V29.041H110.053V34H109.018V33.262C108.844 33.496 108.607 33.691 108.307 33.847C108.007 34.003 107.665 34.081 107.281 34.081C106.855 34.081 106.465 33.973 106.111 33.757C105.757 33.535 105.475 33.229 105.265 32.839C105.061 32.443 104.959 31.996 104.959 31.498ZM109.018 31.516C109.018 31.174 108.946 30.877 108.802 30.625C108.664 30.373 108.481 30.181 108.253 30.049C108.025 29.917 107.779 29.851 107.515 29.851C107.251 29.851 107.005 29.917 106.777 30.049C106.549 30.175 106.363 30.364 106.219 30.616C106.081 30.862 106.012 31.156 106.012 31.498C106.012 31.84 106.081 32.14 106.219 32.398C106.363 32.656 106.549 32.854 106.777 32.992C107.011 33.124 107.257 33.19 107.515 33.19C107.779 33.19 108.025 33.124 108.253 32.992C108.481 32.86 108.664 32.668 108.802 32.416C108.946 32.158 109.018 31.858 109.018 31.516ZM113.903 28.96C114.293 28.96 114.641 29.041 114.947 29.203C115.259 29.365 115.502 29.605 115.676 29.923C115.85 30.241 115.937 30.625 115.937 31.075V34H114.92V31.228C114.92 30.784 114.809 30.445 114.587 30.211C114.365 29.971 114.062 29.851 113.678 29.851C113.294 29.851 112.988 29.971 112.76 30.211C112.538 30.445 112.427 30.784 112.427 31.228V34H111.401V29.041H112.427V29.608C112.595 29.404 112.808 29.245 113.066 29.131C113.33 29.017 113.609 28.96 113.903 28.96ZM118.443 29.878V32.623C118.443 32.809 118.485 32.944 118.569 33.028C118.659 33.106 118.809 33.145 119.019 33.145H119.649V34H118.839C118.377 34 118.023 33.892 117.777 33.676C117.531 33.46 117.408 33.109 117.408 32.623V29.878H116.823V29.041H117.408V27.808H118.443V29.041H119.649V29.878H118.443Z" fill="#5F5F5F"/>
</svg>
