<svg width="114" height="46" viewBox="0 0 114 46" fill="none" xmlns="http://www.w3.org/2000/svg">
<rect width="113.4" height="46" fill="#F6F6F6"/>
<path fill-rule="evenodd" clip-rule="evenodd" d="M19.2001 7C13.8982 7 9.6001 11.2981 9.6001 16.6V31.8L12.8002 31.8V16.6C12.8002 13.0654 15.6656 10.2 19.2002 10.2C22.7348 10.2 25.6002 13.0654 25.6002 16.6V31.8L28.8001 31.8V16.6C28.8001 11.2981 24.502 7 19.2001 7Z" fill="#D9D9D9"/>
<path d="M8 33.0001V20.8C8 20.2478 8.44771 19.8 9 19.8H29.4C29.9523 19.8 30.4 20.2478 30.4 20.8V33C30.4 36.3138 27.7137 39 24.4 39H14C10.6863 39 8 36.3138 8 33.0001Z" fill="#8EBD00"/>
<path d="M19.2002 39V20.8C19.2002 20.2478 19.6479 19.8 20.2002 19.8H29.4002C29.9525 19.8 30.4002 20.2478 30.4002 20.8V33C30.4002 36.3138 27.7139 39 24.4002 39H19.2002Z" fill="#82B100"/>
<path d="M17.9998 34.6L12.7998 29.4L15.1998 27L17.9998 29.8L23.9998 23.8L26.3998 26.2L17.9998 34.6Z" fill="#ffffff"/>
<path d="M35.3999 7L35.3999 39" stroke="#BABABD"/>
<path d="M44.1919 16.584C43.5759 16.584 43.0239 16.484 42.5359 16.284C42.0479 16.084 41.6559 15.788 41.3599 15.396C41.0719 15.004 40.9199 14.532 40.9039 13.98H43.0879C43.1199 14.292 43.2279 14.532 43.4119 14.7C43.5959 14.86 43.8359 14.94 44.1319 14.94C44.4359 14.94 44.6759 14.872 44.8519 14.736C45.0279 14.592 45.1159 14.396 45.1159 14.148C45.1159 13.94 45.0439 13.768 44.8999 13.632C44.7639 13.496 44.5919 13.384 44.3839 13.296C44.1839 13.208 43.8959 13.108 43.5199 12.996C42.9759 12.828 42.5319 12.66 42.1879 12.492C41.8439 12.324 41.5479 12.076 41.2999 11.748C41.0519 11.42 40.9279 10.992 40.9279 10.464C40.9279 9.68 41.2119 9.068 41.7799 8.628C42.3479 8.18 43.0879 7.956 43.9999 7.956C44.9279 7.956 45.6759 8.18 46.2439 8.628C46.8119 9.068 47.1159 9.684 47.1559 10.476H44.9359C44.9199 10.204 44.8199 9.992 44.6359 9.84C44.4519 9.68 44.2159 9.6 43.9279 9.6C43.6799 9.6 43.4799 9.668 43.3279 9.804C43.1759 9.932 43.0999 10.12 43.0999 10.368C43.0999 10.64 43.2279 10.852 43.4839 11.004C43.7399 11.156 44.1399 11.32 44.6839 11.496C45.2279 11.68 45.6679 11.856 46.0039 12.024C46.3479 12.192 46.6439 12.436 46.8919 12.756C47.1399 13.076 47.2639 13.488 47.2639 13.992C47.2639 14.472 47.1399 14.908 46.8919 15.3C46.6519 15.692 46.2999 16.004 45.8359 16.236C45.3719 16.468 44.8239 16.584 44.1919 16.584ZM51.5747 16.584C50.9587 16.584 50.4067 16.484 49.9187 16.284C49.4307 16.084 49.0387 15.788 48.7427 15.396C48.4547 15.004 48.3027 14.532 48.2867 13.98H50.4707C50.5027 14.292 50.6107 14.532 50.7947 14.7C50.9787 14.86 51.2187 14.94 51.5147 14.94C51.8187 14.94 52.0587 14.872 52.2347 14.736C52.4107 14.592 52.4987 14.396 52.4987 14.148C52.4987 13.94 52.4267 13.768 52.2827 13.632C52.1467 13.496 51.9747 13.384 51.7667 13.296C51.5667 13.208 51.2787 13.108 50.9027 12.996C50.3587 12.828 49.9147 12.66 49.5707 12.492C49.2267 12.324 48.9307 12.076 48.6827 11.748C48.4347 11.42 48.3107 10.992 48.3107 10.464C48.3107 9.68 48.5947 9.068 49.1627 8.628C49.7307 8.18 50.4707 7.956 51.3827 7.956C52.3107 7.956 53.0587 8.18 53.6267 8.628C54.1947 9.068 54.4987 9.684 54.5387 10.476H52.3187C52.3027 10.204 52.2027 9.992 52.0187 9.84C51.8347 9.68 51.5987 9.6 51.3107 9.6C51.0627 9.6 50.8627 9.668 50.7107 9.804C50.5587 9.932 50.4827 10.12 50.4827 10.368C50.4827 10.64 50.6107 10.852 50.8667 11.004C51.1227 11.156 51.5227 11.32 52.0667 11.496C52.6107 11.68 53.0507 11.856 53.3867 12.024C53.7307 12.192 54.0267 12.436 54.2747 12.756C54.5227 13.076 54.6467 13.488 54.6467 13.992C54.6467 14.472 54.5227 14.908 54.2747 15.3C54.0347 15.692 53.6827 16.004 53.2187 16.236C52.7547 16.468 52.2067 16.584 51.5747 16.584ZM57.9615 14.916H60.6495V16.5H55.9095V8.076H57.9615V14.916Z" fill="#454545"/>
<path d="M42.7299 21.85V23.27H45.0199V24.59H42.7299V26.13H45.3199V27.5H41.0199V20.48H45.3199V21.85H42.7299ZM52.7101 27.5H51.0001L48.1401 23.17V27.5H46.4301V20.48H48.1401L51.0001 24.83V20.48H52.7101V27.5ZM53.6596 23.98C53.6596 23.2867 53.8096 22.67 54.1096 22.13C54.4096 21.5833 54.8263 21.16 55.3596 20.86C55.8996 20.5533 56.5096 20.4 57.1896 20.4C58.0229 20.4 58.7363 20.62 59.3296 21.06C59.9229 21.5 60.3196 22.1 60.5196 22.86H58.6396C58.4996 22.5667 58.2996 22.3433 58.0396 22.19C57.7863 22.0367 57.4963 21.96 57.1696 21.96C56.6429 21.96 56.2163 22.1433 55.8896 22.51C55.5629 22.8767 55.3996 23.3667 55.3996 23.98C55.3996 24.5933 55.5629 25.0833 55.8896 25.45C56.2163 25.8167 56.6429 26 57.1696 26C57.4963 26 57.7863 25.9233 58.0396 25.77C58.2996 25.6167 58.4996 25.3933 58.6396 25.1H60.5196C60.3196 25.86 59.9229 26.46 59.3296 26.9C58.7363 27.3333 58.0229 27.55 57.1896 27.55C56.5096 27.55 55.8996 27.4 55.3596 27.1C54.8263 26.7933 54.4096 26.37 54.1096 25.83C53.8096 25.29 53.6596 24.6733 53.6596 23.98ZM65.1468 27.5L63.6868 24.85H63.2768V27.5H61.5668V20.48H64.4368C64.9901 20.48 65.4601 20.5767 65.8468 20.77C66.2401 20.9633 66.5334 21.23 66.7268 21.57C66.9201 21.9033 67.0168 22.2767 67.0168 22.69C67.0168 23.1567 66.8834 23.5733 66.6168 23.94C66.3568 24.3067 65.9701 24.5667 65.4568 24.72L67.0768 27.5H65.1468ZM63.2768 23.64H64.3368C64.6501 23.64 64.8834 23.5633 65.0368 23.41C65.1968 23.2567 65.2768 23.04 65.2768 22.76C65.2768 22.4933 65.1968 22.2833 65.0368 22.13C64.8834 21.9767 64.6501 21.9 64.3368 21.9H63.2768V23.64ZM74.1102 20.48L71.6802 25.18V27.5H69.9702V25.18L67.5402 20.48H69.4802L70.8402 23.42L72.1902 20.48H74.1102ZM80.1492 22.74C80.1492 23.1467 80.0559 23.52 79.8692 23.86C79.6825 24.1933 79.3959 24.4633 79.0092 24.67C78.6225 24.8767 78.1425 24.98 77.5692 24.98H76.5092V27.5H74.7992V20.48H77.5692C78.1292 20.48 78.6025 20.5767 78.9892 20.77C79.3759 20.9633 79.6659 21.23 79.8592 21.57C80.0525 21.91 80.1492 22.3 80.1492 22.74ZM77.4392 23.62C77.7659 23.62 78.0092 23.5433 78.1692 23.39C78.3292 23.2367 78.4092 23.02 78.4092 22.74C78.4092 22.46 78.3292 22.2433 78.1692 22.09C78.0092 21.9367 77.7659 21.86 77.4392 21.86H76.5092V23.62H77.4392ZM86.0894 20.48V21.85H84.2294V27.5H82.5194V21.85H80.6594V20.48H86.0894ZM88.6576 20.48V27.5H86.9476V20.48H88.6576ZM93.2169 27.57C92.5569 27.57 91.9502 27.4167 91.3969 27.11C90.8502 26.8033 90.4135 26.3767 90.0869 25.83C89.7669 25.2767 89.6069 24.6567 89.6069 23.97C89.6069 23.2833 89.7669 22.6667 90.0869 22.12C90.4135 21.5733 90.8502 21.1467 91.3969 20.84C91.9502 20.5333 92.5569 20.38 93.2169 20.38C93.8769 20.38 94.4802 20.5333 95.0269 20.84C95.5802 21.1467 96.0135 21.5733 96.3269 22.12C96.6469 22.6667 96.8069 23.2833 96.8069 23.97C96.8069 24.6567 96.6469 25.2767 96.3269 25.83C96.0069 26.3767 95.5735 26.8033 95.0269 27.11C94.4802 27.4167 93.8769 27.57 93.2169 27.57ZM93.2169 26.01C93.7769 26.01 94.2235 25.8233 94.5569 25.45C94.8969 25.0767 95.0669 24.5833 95.0669 23.97C95.0669 23.35 94.8969 22.8567 94.5569 22.49C94.2235 22.1167 93.7769 21.93 93.2169 21.93C92.6502 21.93 92.1969 22.1133 91.8569 22.48C91.5235 22.8467 91.3569 23.3433 91.3569 23.97C91.3569 24.59 91.5235 25.0867 91.8569 25.46C92.1969 25.8267 92.6502 26.01 93.2169 26.01ZM104.038 27.5H102.328L99.4682 23.17V27.5H97.7582V20.48H99.4682L102.328 24.83V20.48H104.038V27.5Z" fill="#454545"/>
<path d="M41.5069 36.105C42.0829 35.607 42.5359 35.199 42.8659 34.881C43.2019 34.557 43.4809 34.221 43.7029 33.873C43.9249 33.525 44.0359 33.177 44.0359 32.829C44.0359 32.469 43.9489 32.187 43.7749 31.983C43.6069 31.779 43.3399 31.677 42.9739 31.677C42.6199 31.677 42.3439 31.791 42.1459 32.019C41.9539 32.241 41.8519 32.541 41.8399 32.919H40.8499C40.8679 32.235 41.0719 31.713 41.4619 31.353C41.8579 30.987 42.3589 30.804 42.9649 30.804C43.6189 30.804 44.1289 30.984 44.4949 31.344C44.8669 31.704 45.0529 32.184 45.0529 32.784C45.0529 33.216 44.9419 33.633 44.7199 34.035C44.5039 34.431 44.2429 34.788 43.9369 35.106C43.6369 35.418 43.2529 35.781 42.7849 36.195L42.3799 36.555H45.2329V37.41H40.8589V36.663L41.5069 36.105ZM50.3642 31.821H47.3492V33.612C47.4752 33.444 47.6612 33.303 47.9072 33.189C48.1592 33.075 48.4262 33.018 48.7082 33.018C49.2122 33.018 49.6202 33.126 49.9322 33.342C50.2502 33.558 50.4752 33.831 50.6072 34.161C50.7452 34.491 50.8142 34.839 50.8142 35.205C50.8142 35.649 50.7272 36.045 50.5532 36.393C50.3852 36.735 50.1302 37.005 49.7882 37.203C49.4522 37.401 49.0382 37.5 48.5462 37.5C47.8922 37.5 47.3672 37.338 46.9712 37.014C46.5752 36.69 46.3382 36.261 46.2602 35.727H47.2592C47.3252 36.009 47.4722 36.234 47.7002 36.402C47.9282 36.564 48.2132 36.645 48.5552 36.645C48.9812 36.645 49.2992 36.516 49.5092 36.258C49.7252 36 49.8332 35.658 49.8332 35.232C49.8332 34.8 49.7252 34.47 49.5092 34.242C49.2932 34.008 48.9752 33.891 48.5552 33.891C48.2612 33.891 48.0122 33.966 47.8082 34.116C47.6102 34.26 47.4662 34.458 47.3762 34.71H46.4042V30.921H50.3642V31.821ZM55.4103 32.46C55.3443 32.184 55.2243 31.977 55.0503 31.839C54.8763 31.701 54.6333 31.632 54.3213 31.632C53.8473 31.632 53.4933 31.815 53.2593 32.181C53.0253 32.541 52.9023 33.141 52.8903 33.981C53.0463 33.717 53.2743 33.513 53.5743 33.369C53.8743 33.225 54.1983 33.153 54.5463 33.153C54.9423 33.153 55.2903 33.24 55.5903 33.414C55.8963 33.582 56.1333 33.828 56.3013 34.152C56.4753 34.476 56.5623 34.863 56.5623 35.313C56.5623 35.733 56.4783 36.108 56.3103 36.438C56.1483 36.768 55.9053 37.029 55.5813 37.221C55.2573 37.407 54.8673 37.5 54.4113 37.5C53.7933 37.5 53.3073 37.365 52.9533 37.095C52.6053 36.819 52.3593 36.432 52.2153 35.934C52.0773 35.436 52.0083 34.815 52.0083 34.071C52.0083 31.875 52.7823 30.777 54.3303 30.777C54.9303 30.777 55.4013 30.939 55.7433 31.263C56.0913 31.587 56.2953 31.986 56.3553 32.46H55.4103ZM54.3213 34.017C53.9553 34.017 53.6433 34.128 53.3853 34.35C53.1333 34.566 53.0073 34.881 53.0073 35.295C53.0073 35.709 53.1243 36.039 53.3583 36.285C53.5983 36.525 53.9313 36.645 54.3573 36.645C54.7353 36.645 55.0323 36.528 55.2483 36.294C55.4703 36.06 55.5813 35.748 55.5813 35.358C55.5813 34.95 55.4733 34.626 55.2573 34.386C55.0473 34.14 54.7353 34.017 54.3213 34.017ZM61.5987 33.81V34.674H57.8997V33.81H61.5987ZM66.4043 34.287C66.7403 34.347 67.0253 34.524 67.2593 34.818C67.4933 35.112 67.6103 35.445 67.6103 35.817C67.6103 36.135 67.5263 36.423 67.3583 36.681C67.1963 36.933 66.9593 37.134 66.6473 37.284C66.3353 37.428 65.9723 37.5 65.5583 37.5H63.0563V31.245H65.4413C65.8673 31.245 66.2333 31.317 66.5393 31.461C66.8453 31.605 67.0763 31.8 67.2323 32.046C67.3883 32.286 67.4663 32.556 67.4663 32.856C67.4663 33.216 67.3703 33.516 67.1783 33.756C66.9863 33.996 66.7283 34.173 66.4043 34.287ZM64.0823 33.873H65.3513C65.6873 33.873 65.9483 33.798 66.1343 33.648C66.3263 33.492 66.4223 33.27 66.4223 32.982C66.4223 32.7 66.3263 32.481 66.1343 32.325C65.9483 32.163 65.6873 32.082 65.3513 32.082H64.0823V33.873ZM65.4683 36.663C65.8163 36.663 66.0893 36.579 66.2873 36.411C66.4853 36.243 66.5843 36.009 66.5843 35.709C66.5843 35.403 66.4793 35.16 66.2693 34.98C66.0593 34.8 65.7803 34.71 65.4323 34.71H64.0823V36.663H65.4683ZM69.7513 31.245V37.5H68.7253V31.245H69.7513ZM75.1393 31.245V32.082H73.4743V37.5H72.4483V32.082H70.7743V31.245H75.1393Z" fill="#5F5F5F"/>
</svg>
